<svg height="512" viewBox="0 0 60 60" width="512" xmlns="http://www.w3.org/2000/svg"><g id="012---Doughnut" fill="none"><g id="Icons"><path id="Shape" d="m32.32 58.91c-11.9010327.9294623-23.15580522-5.5286244-28.35861893-16.272423-5.2028137-10.7437986-3.29063209-23.5781412 4.81811867-32.3386572 8.10875076-8.76051598 20.75729446-11.65726079 31.87050026-7.2989198.2849666.11098283.5034844.34625888.5931464.6386351.0896621.29237621.0406103.60970693-.1331464.8613649-1.4601426 2.03374743-1.5039915 4.76035275-.11 6.84.2848497.4056629.2295384.9587759-.13 1.3-.5849664.5479964-1.0542021 1.2076466-1.38 1.94.037254-.0960373.0806779-.1895657.13-.28-1.08-1.19-2-2.66-3.52-3.14-1.85-.6-4.07.64-6.12.64s-4.27-1.24-6.12-.64-3 2.95-4.58 4.11-4.13 1.48-5.28 3.09-.67 4.1-1.29 6-2.51 3.64-2.51 5.64 1.89 3.78 2.49 5.63.13 4.41 1.29 6 3.71 1.91 5.32 3.09 2.66 3.48 4.58 4.11 4.12-.63 6.12-.63 4.27 1.24 6.12.64 3-3 4.58-4.11 4.15-1.48 5.32-3.09.67-4.1 1.29-6 2.49-3.59 2.49-5.64-1.89-3.78-2.49-5.63c-.1615533-.5578956-.2654308-1.1308968-.31-1.71.7632998-.2701042 1.4640342-.6919054 2.06-1.24.3048486-.2643022.7386655-.3195152 1.1-.14 1.9349262 1.0296888 4.2773601.9223432 6.11-.28.2644841-.1661698.5914215-.199212.8838058-.0893226s.5166276.3500868.6061942.6493226c2.5325074 8.4004876 1.1340216 17.4954767-3.8052198 24.7470752-4.9392413 7.2515985-12.8904068 11.8833969-21.6347802 12.6029248z" fill="#fac176"/><path id="Shape" d="m27.06 58.85c-16.89-1.7-28.76-17.69-25.57-34 1.55499755-8.5385315 6.84625642-15.93456811 14.4252694-20.16340962 7.579013-4.22884151 16.6518323-4.84749105 24.7347306-1.68659038.2849666.11098283.5034844.34625888.5931464.6386351.0896621.29237621.0406103.60970693-.1331464.8613649-1.4601426 2.03374743-1.5039915 4.76035275-.11 6.84.2848497.4056629.2295384.9587759-.13 1.3-.5849664.5479964-1.0542021 1.2076466-1.38 1.94.037254-.0960373.0806779-.1895657.13-.28-.54-.59-1-1.25-1.6-1.83-1.48-1.51-2.61-1.73-4.75-1.25s-2.83.8-4.79.41c-1.6-.32-3.21-.93-4.61-.47l-.15.06c-1.82.7-2.87 2.92-4.42 4s-4.15 1.53-5.3 3.14-.67 4.1-1.29 6-2.51 3.64-2.51 5.64 1.89 3.78 2.49 5.63.13 4.41 1.29 6c1.3 1.78 4.08 1.86 5.88 3.56 1.49 1.49 2.36 3 3.86 3.58 1.43.57 3.07-.07 4.77-.41 1.95-.39 2.69 0 4.78.41.9250808.2683392 1.9044114.2890293 2.84.06 1.92-.63 3-3 4.58-4.11s4.15-1.48 5.32-3.09.67-4.1 1.29-6 2.5-3.58 2.5-5.63-1.89-3.78-2.49-5.63c-.1615533-.5578956-.2654308-1.1308968-.31-1.71.7632998-.2701042 1.4640342-.6919054 2.06-1.24.3048486-.2643022.7386655-.3195152 1.1-.14 1.9349262 1.0296888 4.2773601.9223432 6.11-.28.2644841-.1661698.5914215-.199212.8838058-.0893226s.5166276.3500868.6061942.6493226c2.8262407 9.289436.8158896 19.3768959-5.3556073 26.8731538-6.1714969 7.496258-15.685101 11.4064621-25.3443927 10.4168462z" fill="#ff9801"/><g fill="#f57c00"><path id="Shape" d="m33.26 48.78c-2.1-.47-2.78-.79-4.77-.41 1.84.38 3.34.95 4.77.41z"/><path id="Shape" d="m57.76 21.59c-.0824321-.3045507-.3037572-.5523373-.5971058-.6684955-.2933487-.1161581-.6243116-.0870628-.8928942.0784955-.4595838.296371-.9575276.5285205-1.48.69 2.5379363 8.5210081 1.0354949 17.7349717-4.0778946 25.0083443s-13.2750131 11.8057401-22.1521054 12.3016557c9.4254632.4511593 18.4828178-3.7038572 24.2889114-11.1424175 5.8060936-7.4385602 7.6374425-17.2337629 4.9110886-26.2675825z"/><path id="Shape" d="m37.65 3c.2849666.11098283.5034844.34625888.5931464.6386351.0896621.29237621.0406103.60970693-.1331464.8613649-1.4601426 2.03374743-1.5039915 4.76035275-.11 6.84.2241995.3360369.2241995.7739631 0 1.11.42.42 1.12 1.3 1.62 1.85-.0493221.0904343-.092746.1839627-.13.28.3257979-.7323534.7950336-1.3920036 1.38-1.94.3595384-.3412241.4148497-.8943371.13-1.3-1.3860694-2.06873907-1.350256-4.77861325.09-6.81.1867401-.25047555.2456844-.57383386.1593362-.87409015s-.3080649-.54290163-.5993362-.65590985c-3.845553-1.53091842-7.9764107-2.213141-12.11-2 3.1253807.16565528 6.2026456.84123485 9.11 2z"/></g><circle id="Oval" cx="45" cy="17" fill="#a0522d" r="2"/><circle id="Oval" cx="46" cy="8" fill="#a0522d" r="2"/><circle id="Oval" cx="53" cy="16" fill="#a0522d" r="2"/><path id="Shape" d="m47.31 24.37c-.1615533-.5578956-.2654308-1.1308968-.31-1.71-1.1245945.3851497-2.3365064.4372376-3.49.15-1.7579405-.4533005-3.2161102-1.6781726-3.9660285-3.33149-.7499184-1.6533174-.7109354-3.5572741.1060285-5.17851-2.32-2.55-2.9-3.85-6.35-3.08-2.06.45-2.83.8-4.79.41-1.65-.33-3.35-1-4.78-.41-1.82.7-2.87 2.92-4.42 4s-4.16 1.53-5.31 3.14-.67 4.1-1.29 6-2.51 3.64-2.51 5.64 1.89 3.78 2.49 5.63.13 4.41 1.29 6 3.71 1.91 5.32 3.09 2.6 3.35 4.42 4.05c1.43.57 3.14-.08 4.78-.41 1.95-.39 2.69 0 4.78.41.9250808.2683392 1.9044114.2890293 2.84.06 1.92-.63 3-3 4.58-4.11s4.15-1.48 5.32-3.09.67-4.1 1.29-6 2.49-3.58 2.49-5.63-1.89-3.78-2.49-5.63zm-17.31 11.63c-3.3137085 0-6-2.6862915-6-6s2.6862915-6 6-6 6 2.6862915 6 6-2.6862915 6-6 6z" fill="#e91e63"/><path id="Shape" d="m36.64 14.3c-2.35 4.24 1.69 9.83 6.87 8.51-1.7597484-.4509084-3.2204584-1.6748061-3.9724653-3.3284441-.752007-1.6536379-.7143296-3.558941.1024653-5.1815559-2.31-2.55-2.9-3.85-6.35-3.08 1.17.44 1.94 1.52 3.35 3.08z" fill="#ad1457"/><path id="Shape" d="m47.31 24.37c-.1615533-.5578956-.2654308-1.1308968-.31-1.71-.9633531.3322883-1.9938435.4215974-3 .26.0499054.4907162.1436123.9759838.28 1.45.63 1.85 2.52 3.63 2.52 5.63s-1.89 3.78-2.49 5.63-.13 4.41-1.29 6-3.71 1.91-5.32 3.09-2.61 3.35-4.44 4.05c.9325362.2641119 1.9172076.2847693 2.86.06 1.92-.63 3-3 4.58-4.11s4.15-1.48 5.32-3.09.67-4.1 1.29-6 2.49-3.58 2.49-5.63-1.89-3.78-2.49-5.63z" fill="#ad1457"/><circle id="Oval" cx="30" cy="30" fill="#fff" r="6"/><circle id="Oval" cx="30" cy="30" fill="#fff" r="6"/></g><g id="Layer_9" fill="#000" transform="translate(-1 -1)"><path id="Shape" d="m31 24c-3.8659932 0-7 3.1340068-7 7s3.1340068 7 7 7 7-3.1340068 7-7-3.1340068-7-7-7zm0 12c-2.7614237 0-5-2.2385763-5-5s2.2385763-5 5-5 5 2.2385763 5 5-2.2385763 5-5 5z"/><path id="Shape" d="m31 61c9.4868233-.031029 18.4030597-4.5356856 24.0566854-12.1539069 5.6536257-7.6182212 7.3820108-17.4571179 4.6633146-26.5460931-.1796878-.6029473-.6326201-1.0861964-1.2226784-1.304518-.5900582-.2183215-1.2484541-.1462638-1.7773216.194518-1.5311271.9938926-3.4822051 1.074389-5.09.21-.7401383-.3838553-1.6407564-.2682893-2.26.29-2.0316351 1.8191368-5.1462448 1.6747982-7.000927-.3244402-1.8546822-1.9992383-1.7652927-5.1159091.200927-7.0055598.7143575-.6744926.8330285-1.7679617.28-2.58-.5568812-.8198969-.8531501-1.78887048-.85-2.78 0-2.66 1.71-2.92 1.21-4.6-.1755595-.60226913-.6235361-1.08726856-1.21-1.31-18.88-7.47-39.42 5.84-40.91 25.58-.64941006 8.336246 2.20971374 16.5652779 7.88801116 22.703003 5.67829744 6.137725 13.66048594 9.6271694 22.02198884 9.626997zm16.17-36.1c.52 2.59 2.63 4.25 2.63 6.1 0 1.66-1.8 3.36-2.44 5.32s-.22 4.46-1.15 5.73-3.4 1.63-5.1 2.87-2.75 3.46-4.3 4-3.67-.72-5.81-.72-4.35 1.16-5.81.68-2.6-2.73-4.3-4-4.16-1.57-5.1-2.87-.5-3.72-1.15-5.73-2.44-3.61-2.44-5.28 1.8-3.36 2.44-5.32.22-4.46 1.15-5.73 3.4-1.63 5.1-2.87 2.75-3.46 4.3-4 3.67.68 5.81.68 4.34-1.16 5.81-.68c1.0720031.5490225 1.9872132 1.3610134 2.66 2.36-.9246592 2.3520628-.5096776 5.0199187 1.0857282 6.9799887s4.1234792 2.9079673 6.6142718 2.4800113zm-44.09 3.92c.73524286-8.8393422 5.60366826-16.8116191 13.1312699-21.50307569 7.5276017-4.69145662 16.8292619-5.55045755 25.0887301-2.31692431-1.7041249 2.38300354-1.7440267 5.5751446-.1 8-.2362984.2311077-.4599567.4747952-.67.73-2.43-2.83-3.82-3-7.22-2.22-1.497819.5097403-3.122181.5097403-4.62 0-3.59-.85-4.85-.56-7.41 2.45-.8741638 1.2482983-2.1417688 2.1673119-3.6 2.61-3.58 1.43-4.29 2.43-4.6 6.22.0263252 1.5153572-.4521207 2.9964285-1.36 4.21-2 3.28-2.05 4.66 0 8 .9099964 1.2162919 1.3885566 2.701236 1.36 4.22.31 3.75 1 4.82 4.6 6.31 1.4568441.4454771 2.7236168 1.3638872 3.6 2.61 1.39 1.62 2.58 2.86 4.72 2.86 1.71 0 3.53-.8 5-.8 1.93 0 4.21 1.3 6.43.59s3.36-3.17 4.86-4.26 4.15-1.39 5.54-3.3.86-4.52 1.44-6.29 2.53-3.54 2.53-5.94c0-2.77-2.32-4.27-2.72-6.74.5839157-.2870321 1.1229074-.6575889 1.6-1.1 2.2531645 1.1842974 4.9667971 1.0775815 7.12-.28 3.2537363 10.7690203-.2536585 22.4396763-8.9049922 29.6308531-8.6513336 7.1911769-20.7664673 8.5063065-30.759346 3.339008-9.99287868-5.1672985-15.92282776-15.813506-15.0556618-27.0298611z"/><path id="Shape" d="m43 18c0 1.6568542 1.3431458 3 3 3s3-1.3431458 3-3-1.3431458-3-3-3-3 1.3431458-3 3zm4 0c0 .5522847-.4477153 1-1 1s-1-.4477153-1-1 .4477153-1 1-1 1 .4477153 1 1z"/><path id="Shape" d="m50 9c0-1.65685425-1.3431458-3-3-3s-3 1.34314575-3 3c0 1.6568542 1.3431458 3 3 3s3-1.3431458 3-3zm-3 1c-.5522847 0-1-.44771525-1-1s.4477153-1 1-1 1 .44771525 1 1-.4477153 1-1 1z"/><path id="Shape" d="m54 14c-1.6568542 0-3 1.3431458-3 3s1.3431458 3 3 3 3-1.3431458 3-3-1.3431458-3-3-3zm0 4c-.5522847 0-1-.4477153-1-1s.4477153-1 1-1 1 .4477153 1 1-.4477153 1-1 1z"/><circle id="Oval" cx="31" cy="18" r="1"/><circle id="Oval" cx="24" cy="21" r="1"/><circle id="Oval" cx="31" cy="42" r="1"/><circle id="Oval" cx="21" cy="27" r="1"/><circle id="Oval" cx="25" cy="44" r="1"/><circle id="Oval" cx="16" cy="31" r="1"/><circle id="Oval" cx="21" cy="37" r="1"/><circle id="Oval" cx="41" cy="27" r="1"/><circle id="Oval" cx="37" cy="44" r="1"/><circle id="Oval" cx="46" cy="31" r="1"/><circle id="Oval" cx="41" cy="37" r="1"/></g></g></svg>